<?xml version="1.0" standalone="no"?>
<!DOCTYPE svg PUBLIC "-//W3C//DTD SVG 20010904//EN"
 "http://www.w3.org/TR/2001/REC-SVG-20010904/DTD/svg10.dtd">
<svg version="1.0" xmlns="http://www.w3.org/2000/svg"
 width="144.000000pt" height="144.000000pt" viewBox="0 0 144.000000 144.000000"
 preserveAspectRatio="xMidYMid meet">

<g transform="translate(0.000000,144.000000) scale(0.100000,-0.100000)"
fill="#000000" stroke="none">
<path d="M694 1263 c-9 -20 -21 -63 -27 -94 l-10 -58 -42 35 c-64 52 -163 81
-181 52 -4 -7 0 -16 11 -22 40 -23 97 -81 122 -123 27 -47 26 -61 -4 -45 -48
26 -191 22 -200 -5 -2 -6 15 -20 39 -31 50 -23 116 -86 166 -160 l35 -53 -35
-37 c-64 -66 -72 -92 -76 -246 -5 -157 3 -199 50 -252 47 -53 101 -77 178 -77
76 0 131 24 177 77 49 55 57 93 49 241 -8 163 -17 196 -70 249 l-42 43 37 54
c53 79 115 138 166 161 24 11 42 25 40 31 -10 30 -120 31 -216 1 l-23 -7 23
42 c23 41 96 115 134 137 23 13 12 34 -19 34 -41 0 -113 -31 -153 -65 l-40
-34 -10 58 c-13 69 -38 131 -53 131 -6 0 -18 -17 -26 -37z m43 -90 c11 -69 9
-144 -6 -178 l-13 -30 -14 40 c-7 22 -14 51 -14 64 0 42 22 151 30 151 5 0 12
-21 17 -47z m-142 -60 c37 -36 77 -110 91 -168 l7 -30 -22 19 c-11 11 -21 24
-21 30 0 21 -61 131 -87 159 -40 41 -12 33 32 -10z m262 -16 c-19 -25 -43 -67
-53 -94 -9 -26 -26 -57 -37 -68 -19 -20 -19 -20 -12 15 11 57 46 121 88 162
22 21 42 37 44 34 2 -2 -11 -24 -30 -49z m-292 -131 c46 -21 96 -66 138 -126
l17 -25 18 25 c61 88 150 150 214 150 26 0 26 -1 -20 -47 -27 -27 -66 -75 -89
-108 l-40 -60 -84 1 -83 1 -40 59 c-22 33 -62 80 -89 107 -48 47 -48 47 -20
47 15 0 51 -11 78 -24z m245 -246 l22 -12 -21 -21 -21 -21 -34 33 c-20 19 -33
38 -30 42 5 8 49 -3 84 -21z m-170 -15 c-31 -32 -50 -37 -50 -14 0 10 59 49
74 49 6 0 -5 -16 -24 -35z m92 -97 l-32 -32 -35 34 -35 34 32 33 32 33 35 -35
36 -35 -33 -32z m151 37 c18 -38 22 -75 9 -75 -4 0 -23 16 -42 35 -33 34 -33
35 -15 55 24 27 29 26 48 -15z m-319 -16 c-21 -24 -29 -18 -14 10 6 12 16 19
21 15 6 -4 4 -13 -7 -25z m74 -116 l-38 -37 -35 34 -35 34 37 38 37 38 36 -35
35 -35 -37 -37z m192 62 l34 -35 -32 -32 -32 -33 -37 37 -37 38 29 30 c16 16
32 30 35 30 3 0 21 -16 40 -35z m-90 -90 l34 -35 -37 -38 -37 -37 -37 37 -37
38 34 35 c19 19 37 35 40 35 3 0 21 -16 40 -35z m168 -43 c2 -34 -1 -62 -6
-62 -4 0 -23 16 -42 35 l-34 35 29 30 c16 17 34 29 40 27 5 -2 11 -31 13 -65z
m-355 22 c16 -20 16 -22 -3 -39 -20 -18 -20 -18 -20 25 0 24 1 41 3 39 1 -2
10 -13 20 -25z m81 -81 l35 -38 -27 -28 -26 -27 -38 37 -38 37 27 28 c15 15
28 28 30 28 1 0 18 -17 37 -37z m206 2 l34 -35 -37 -38 -37 -37 -37 37 -37 38
34 35 c19 19 37 35 40 35 3 0 21 -16 40 -35z m-256 -127 c-9 -14 -19 -9 -37
21 -25 43 -21 48 13 16 16 -15 27 -32 24 -37z m159 -40 l-27 -28 -38 37 -38
37 27 28 27 28 38 -37 38 -37 -27 -28z m160 84 c-2 -10 -15 -32 -28 -48 -19
-23 -26 -27 -36 -17 -10 11 -6 20 21 48 38 39 50 44 43 17z m-258 -92 c10 -11
15 -20 12 -20 -14 0 -57 24 -57 32 0 15 27 8 45 -12z m160 -11 c-4 -5 -13 -9
-22 -9 -13 0 -13 3 -3 15 13 15 35 11 25 -6z"/>
</g>
</svg>
